<svg width="173" height="40" viewBox="0 0 173 40" fill="none" xmlns="http://www.w3.org/2000/svg">
<g clip-path="url(#clip0_1_620)">
<path d="M40.3582 38.6354L21.213 38.5021C17.6886 38.4775 14.8603 36.0235 14.8958 33.0205V33.0203C14.9314 30.0175 17.8174 27.603 21.3419 27.6276L40.4869 27.7609C44.0114 27.7855 46.8398 30.2397 46.8041 33.2425V33.2427C46.7687 36.2454 43.8825 38.66 40.3582 38.6354Z" fill="#287135"/>
<path d="M30.7857 38.5687L21.213 38.5021C17.6886 38.4775 14.8603 36.0235 14.8958 33.0205V33.0203C14.9314 30.0175 17.8174 27.603 21.3419 27.6276L30.9144 27.6942L30.7857 38.5687Z" fill="#F5F5F4"/>
<path d="M39.8814 32.2411C39.876 32.2411 39.8708 32.2411 39.8654 32.2411L30.8611 32.1784L30.8995 28.9266L39.904 28.9893C40.9579 28.9966 41.8036 29.7304 41.7931 30.6286C41.7825 31.5218 40.9279 32.2411 39.8814 32.2411Z" fill="#61925C"/>
<path d="M30.8612 32.1784L21.8569 32.1158C20.8029 32.1085 19.9571 31.3745 19.9679 30.4766C19.9785 29.5832 20.8327 28.864 21.8793 28.864C21.8846 28.864 21.8901 28.864 21.8954 28.864L30.8997 28.9267L30.8612 32.1784Z" fill="#F8F8F7"/>
<path d="M40.4432 38.6356C40.4436 38.6356 40.4446 38.6354 40.445 38.6354C40.4445 38.6354 40.4438 38.6356 40.4432 38.6356ZM40.5071 38.6349C40.5081 38.6349 40.5088 38.6349 40.5099 38.6349C40.509 38.6349 40.5081 38.6349 40.5071 38.6349ZM40.5725 38.6338C40.5728 38.6338 40.5732 38.6338 40.5736 38.6338C40.573 38.6338 40.573 38.6338 40.5725 38.6338ZM40.5884 38.6335C40.5893 38.6335 40.59 38.6335 40.5908 38.6335C40.5901 38.6335 40.5891 38.6335 40.5884 38.6335ZM40.6205 38.6328C40.6213 38.6326 40.6219 38.6326 40.6228 38.6326C40.622 38.6326 40.6212 38.6328 40.6205 38.6328ZM40.6688 38.6312C40.6697 38.6312 40.6709 38.6312 40.6718 38.6312C40.6707 38.6312 40.6698 38.6312 40.6688 38.6312ZM40.6861 38.6307H40.6862C40.6861 38.6307 40.6862 38.6307 40.6861 38.6307ZM40.7182 38.6294C40.7183 38.6294 40.7185 38.6294 40.7189 38.6294C40.7187 38.6294 40.7183 38.6294 40.7182 38.6294ZM40.7332 38.6287C40.7337 38.6287 40.7344 38.6287 40.7351 38.6287C40.7344 38.6287 40.7339 38.6287 40.7332 38.6287ZM40.7658 38.6273C40.7661 38.6273 40.7663 38.6273 40.7667 38.6273C40.7665 38.6273 40.7661 38.6273 40.7658 38.6273ZM40.7815 38.6266C40.7822 38.6266 40.7831 38.6264 40.7836 38.6264C40.7827 38.6264 40.7824 38.6266 40.7815 38.6266ZM40.813 38.625C40.8137 38.6248 40.8148 38.6248 40.8155 38.6248C40.8146 38.6248 40.8139 38.6248 40.813 38.625ZM40.8453 38.6232C40.8458 38.6231 40.8465 38.6231 40.8471 38.6231C40.8464 38.6231 40.846 38.6231 40.8453 38.6232ZM40.9245 38.6183C40.9255 38.6181 40.9264 38.6181 40.9275 38.618C40.9264 38.6181 40.9254 38.6181 40.9245 38.6183ZM40.9412 38.6171C40.9421 38.6171 40.9432 38.6169 40.9439 38.6169C40.943 38.6169 40.9423 38.6171 40.9412 38.6171ZM40.9569 38.616C40.9573 38.6158 40.9582 38.6158 40.9585 38.6158C40.958 38.6158 40.9575 38.6158 40.9569 38.616ZM40.9728 38.6147C40.9737 38.6147 40.9746 38.6146 40.9755 38.6146C40.9744 38.6146 40.9737 38.6147 40.9728 38.6147ZM40.9897 38.6136C40.9899 38.6136 40.9904 38.6136 40.9906 38.6134C40.9903 38.6136 40.9901 38.6136 40.9897 38.6136ZM41.0042 38.6123C41.0051 38.6123 41.0061 38.6123 41.007 38.6121C41.006 38.6123 41.0053 38.6123 41.0042 38.6123ZM41.0837 38.6058C41.0844 38.6056 41.0857 38.6056 41.0862 38.6054C41.0853 38.6056 41.0846 38.6056 41.0837 38.6058ZM41.1007 38.6042C41.101 38.6042 41.1014 38.6042 41.1017 38.604C41.1014 38.6042 41.1008 38.6042 41.1007 38.6042ZM41.1149 38.6027C41.116 38.6027 41.1165 38.6027 41.1176 38.6026C41.1169 38.6026 41.1158 38.6027 41.1149 38.6027ZM41.1474 38.5998C41.1478 38.5998 41.1483 38.5996 41.1486 38.5996C41.1483 38.5996 41.1476 38.5998 41.1474 38.5998ZM41.2257 38.5916C41.2262 38.5916 41.2269 38.5915 41.2276 38.5915C41.2269 38.5915 41.2264 38.5916 41.2257 38.5916ZM41.2723 38.5863C41.2735 38.5863 41.2744 38.5862 41.2756 38.586C41.2745 38.5862 41.2735 38.5863 41.2723 38.5863ZM41.289 38.5844C41.2897 38.5844 41.2909 38.5843 41.2915 38.5843C41.2906 38.5843 41.2899 38.5844 41.289 38.5844ZM41.3035 38.5828C41.3045 38.5826 41.3054 38.5825 41.3065 38.5825C41.3056 38.5825 41.3044 38.5826 41.3035 38.5828ZM41.3199 38.5809C41.3209 38.5807 41.322 38.5806 41.323 38.5803C41.322 38.5806 41.3208 38.5807 41.3199 38.5809ZM41.3357 38.579C41.3361 38.5788 41.3366 38.5788 41.337 38.5788C41.3366 38.5788 41.3363 38.5788 41.3357 38.579ZM41.3506 38.577C41.3516 38.5768 41.353 38.5766 41.3541 38.5766C41.3528 38.5766 41.3518 38.5768 41.3506 38.577ZM41.3982 38.5708C41.3994 38.5706 41.4001 38.5706 41.4013 38.5705C41.4003 38.5706 41.3992 38.5706 41.3982 38.5708ZM41.4128 38.5689C41.4139 38.5687 41.4146 38.5687 41.4155 38.5686C41.4146 38.5687 41.4137 38.5687 41.4128 38.5689ZM41.4592 38.5626C41.4604 38.5624 41.462 38.5622 41.4631 38.562C41.4618 38.5622 41.4606 38.5624 41.4592 38.5626ZM41.4902 38.5582C41.4913 38.5579 41.4925 38.5578 41.4936 38.5576C41.4923 38.5578 41.4913 38.5579 41.4902 38.5582ZM41.5066 38.5557C41.5077 38.5555 41.5087 38.5553 41.5098 38.5553C41.5086 38.5553 41.5079 38.5555 41.5066 38.5557ZM41.5225 38.5534C41.523 38.5532 41.5232 38.5532 41.5237 38.5532C41.5236 38.5532 41.5227 38.5534 41.5225 38.5534ZM41.5375 38.5511C41.5385 38.5509 41.5394 38.5507 41.5405 38.5506C41.5393 38.5507 41.5385 38.5509 41.5375 38.5511ZM41.568 38.5463C41.5691 38.5462 41.5699 38.5462 41.571 38.546C41.5699 38.5462 41.5689 38.5463 41.568 38.5463ZM41.584 38.5438C41.5851 38.5437 41.5863 38.5435 41.5874 38.5433C41.5863 38.5435 41.5853 38.5437 41.584 38.5438ZM41.5992 38.5413C41.5997 38.5413 41.6008 38.5412 41.6013 38.541C41.6006 38.5412 41.5999 38.5413 41.5992 38.5413ZM41.6315 38.5362C41.6318 38.5361 41.6318 38.5361 41.6322 38.5361C41.632 38.5361 41.6317 38.5361 41.6315 38.5362ZM41.6454 38.534C41.6463 38.5338 41.647 38.5336 41.6481 38.5334C41.6474 38.5336 41.6461 38.5338 41.6454 38.534ZM41.6921 38.5258C41.6929 38.5258 41.6936 38.5257 41.6944 38.5255C41.6937 38.5257 41.6927 38.5258 41.6921 38.5258ZM41.7223 38.5205C41.7232 38.5204 41.7241 38.5202 41.7249 38.5202C41.7241 38.5204 41.7232 38.5204 41.7223 38.5205ZM41.7385 38.5177C41.7394 38.5176 41.7396 38.5176 41.7403 38.5174C41.7398 38.5176 41.7392 38.5176 41.7385 38.5177ZM41.753 38.5151C41.7537 38.5149 41.7544 38.5149 41.7551 38.5147C41.7544 38.5147 41.7537 38.5149 41.753 38.5151ZM41.7842 38.5093C41.7844 38.5093 41.7849 38.5093 41.7851 38.5091C41.7847 38.5093 41.7846 38.5093 41.7842 38.5093ZM41.8154 38.5034C41.8152 38.5034 41.8156 38.5034 41.8154 38.5034V38.5034ZM21.1983 38.5021C21.1974 38.5021 21.1961 38.5021 21.1953 38.5021C21.1963 38.5021 21.1972 38.5021 21.1983 38.5021ZM21.1489 38.5013C21.1476 38.5013 21.1468 38.5013 21.1455 38.5013C21.1466 38.5013 21.1478 38.5013 21.1489 38.5013ZM21.0843 38.5001C21.0831 38.5001 21.082 38.5001 21.0808 38.5001C21.0819 38.5001 21.0833 38.5001 21.0843 38.5001ZM21.0671 38.4997C21.066 38.4997 21.0648 38.4996 21.0639 38.4996C21.0649 38.4997 21.066 38.4997 21.0671 38.4997ZM21.051 38.4992C21.0503 38.4992 21.0498 38.4992 21.0491 38.4992C21.0498 38.4992 21.0505 38.4992 21.051 38.4992ZM21.035 38.4989C21.0339 38.4987 21.0327 38.4987 21.0316 38.4987C21.0327 38.4987 21.0337 38.4987 21.035 38.4989ZM21.0029 38.4978C21.0016 38.4978 21.0006 38.4976 20.9993 38.4976C21.0004 38.4976 21.0018 38.4978 21.0029 38.4978ZM41.8457 38.4976L41.8461 38.4974C41.8459 38.4974 41.8459 38.4974 41.8457 38.4976ZM20.9702 38.4965C20.9692 38.4965 20.9685 38.4965 20.9674 38.4964C20.9683 38.4965 20.9694 38.4965 20.9702 38.4965ZM20.9537 38.4958C20.9526 38.4958 20.9512 38.4958 20.95 38.4956C20.9512 38.4958 20.9524 38.4958 20.9537 38.4958ZM20.9367 38.4952C20.9364 38.4952 20.936 38.4952 20.9357 38.4952C20.9362 38.4952 20.9364 38.4952 20.9367 38.4952ZM41.8604 38.4946C41.8607 38.4946 41.8609 38.4946 41.8613 38.4944C41.8611 38.4944 41.8607 38.4946 41.8604 38.4946ZM20.9214 38.4944C20.9205 38.4944 20.9191 38.4944 20.9182 38.4944C20.9193 38.4944 20.9203 38.4944 20.9214 38.4944ZM20.9039 38.4937C20.9034 38.4937 20.9029 38.4936 20.9023 38.4936C20.9027 38.4936 20.9036 38.4937 20.9039 38.4937ZM20.872 38.4921C20.8711 38.4921 20.8706 38.492 20.8697 38.492C20.8704 38.492 20.8715 38.4921 20.872 38.4921ZM41.8756 38.4916C41.8761 38.4914 41.8764 38.4914 41.8771 38.4912C41.8766 38.4914 41.8761 38.4916 41.8756 38.4916ZM20.8399 38.4904C20.8394 38.4904 20.8383 38.4902 20.8376 38.4902C20.8385 38.4902 20.8392 38.4904 20.8399 38.4904ZM20.823 38.4893C20.8228 38.4893 20.8223 38.4893 20.8221 38.4893C20.8223 38.4893 20.8226 38.4893 20.823 38.4893ZM20.7911 38.4874C20.7905 38.4874 20.79 38.4874 20.7895 38.4874C20.7902 38.4874 20.7904 38.4874 20.7911 38.4874ZM20.7747 38.4865C20.7745 38.4865 20.7743 38.4863 20.7743 38.4863C20.7745 38.4865 20.7745 38.4865 20.7747 38.4865ZM41.9059 38.4854C41.9062 38.4854 41.9068 38.4852 41.9071 38.4852C41.9068 38.4852 41.9064 38.4854 41.9059 38.4854ZM20.7267 38.4832C20.7263 38.4832 20.726 38.4832 20.7256 38.4832C20.7258 38.4832 20.7265 38.4832 20.7267 38.4832ZM41.9218 38.4823H41.9219C41.9218 38.4823 41.9218 38.4823 41.9218 38.4823ZM20.6948 38.4808C20.6942 38.4808 20.6941 38.4808 20.6935 38.4807C20.6941 38.4808 20.6944 38.4808 20.6948 38.4808ZM20.6784 38.4796C20.678 38.4796 20.6777 38.4794 20.6773 38.4794C20.6778 38.4794 20.678 38.4796 20.6784 38.4796ZM41.9364 38.4791C41.9367 38.4791 41.9369 38.4791 41.9371 38.4791C41.9367 38.4791 41.9367 38.4791 41.9364 38.4791ZM20.6461 38.477H20.6458C20.6459 38.477 20.6459 38.477 20.6461 38.477ZM41.9821 38.4696L41.9824 38.4694C41.9822 38.4694 41.9821 38.4694 41.9821 38.4696Z" fill="#E4E1E0"/>
<path d="M40.4112 38.6356C40.3936 38.6356 40.3758 38.6356 40.3581 38.6354L30.7856 38.5687L30.8119 36.3437L41.5608 36.4185C41.5832 36.4187 41.6055 36.4189 41.6279 36.4189C43.4765 36.4189 45.1642 35.8862 46.4366 35.0112C45.727 36.712 44.0541 38.0225 41.9825 38.4694L41.9821 38.4696C41.9723 38.4717 41.9622 38.4738 41.9523 38.4759C41.9522 38.4759 41.952 38.4759 41.9518 38.4759C41.9469 38.477 41.9421 38.478 41.9372 38.4791C41.937 38.4791 41.9368 38.4791 41.9365 38.4791C41.9317 38.4801 41.9268 38.4812 41.922 38.4823H41.9218C41.9171 38.4832 41.912 38.4842 41.9072 38.4852C41.9068 38.4852 41.9063 38.4854 41.906 38.4854C41.8964 38.4874 41.8867 38.4895 41.8772 38.4912C41.8765 38.4914 41.8762 38.4914 41.8756 38.4916C41.8709 38.4927 41.8663 38.4936 41.8613 38.4944C41.861 38.4946 41.8608 38.4946 41.8605 38.4946C41.8557 38.4956 41.8509 38.4965 41.8462 38.4974L41.8458 38.4976C41.8411 38.4985 41.8363 38.4994 41.8315 38.5003C41.8308 38.5005 41.8301 38.5006 41.8296 38.5006C41.8248 38.5016 41.8201 38.5025 41.8155 38.5034C41.8153 38.5034 41.8157 38.5034 41.8155 38.5034C41.8109 38.5043 41.8063 38.5052 41.8017 38.506C41.8007 38.5063 41.7998 38.5065 41.7987 38.5066C41.7943 38.5075 41.7897 38.5084 41.7852 38.5091C41.785 38.5093 41.7845 38.5093 41.7843 38.5093C41.7799 38.5101 41.7755 38.511 41.7709 38.5117C41.7704 38.5119 41.7696 38.5121 41.7689 38.5121C41.7644 38.5129 41.7598 38.5138 41.7552 38.5147C41.7545 38.5149 41.7538 38.5149 41.7531 38.5151C41.7488 38.5158 41.7446 38.5167 41.7404 38.5174C41.7397 38.5176 41.7395 38.5176 41.7386 38.5177C41.734 38.5185 41.7296 38.5193 41.725 38.5202C41.7241 38.5202 41.7233 38.5204 41.7224 38.5205C41.713 38.5223 41.7039 38.5239 41.6945 38.5255C41.6936 38.5257 41.6929 38.5258 41.6922 38.5258C41.6875 38.5267 41.6832 38.5274 41.6786 38.5283C41.6778 38.5283 41.6769 38.5285 41.676 38.5287C41.6719 38.5293 41.6681 38.5301 41.664 38.5308C41.6633 38.5309 41.6624 38.5309 41.6617 38.5311C41.6571 38.5318 41.6527 38.5327 41.6481 38.5334C41.6471 38.5336 41.6464 38.5338 41.6455 38.534C41.6411 38.5347 41.6367 38.5353 41.6323 38.5361C41.6319 38.5361 41.6319 38.5361 41.6316 38.5362C41.627 38.5369 41.6226 38.5377 41.6182 38.5384C41.6169 38.5385 41.6159 38.5387 41.6146 38.5389C41.6104 38.5396 41.6058 38.5403 41.6014 38.541C41.6009 38.5412 41.5998 38.5413 41.5993 38.5413C41.5954 38.5421 41.5914 38.5428 41.5875 38.5433C41.5864 38.5435 41.5852 38.5437 41.5841 38.5438C41.5799 38.5446 41.5755 38.5453 41.5711 38.546C41.57 38.5462 41.5691 38.5462 41.5681 38.5463C41.5642 38.547 41.5601 38.5475 41.5563 38.5482C41.5556 38.5482 41.5547 38.5484 41.554 38.5486C41.5496 38.5493 41.545 38.55 41.5406 38.5506C41.5395 38.5507 41.5386 38.5509 41.5376 38.5511C41.533 38.5518 41.5284 38.5525 41.5238 38.5532C41.5233 38.5532 41.5231 38.5532 41.5226 38.5534C41.5183 38.5539 41.5141 38.5546 41.5099 38.5553C41.5088 38.5553 41.5078 38.5555 41.5067 38.5557C41.5023 38.5564 41.4981 38.5569 41.4937 38.5576C41.4926 38.5578 41.4914 38.5579 41.4903 38.5582C41.4868 38.5586 41.4827 38.5592 41.4792 38.5597C41.4781 38.5599 41.4771 38.5601 41.4762 38.5601C41.4718 38.5608 41.4676 38.5613 41.4631 38.562C41.4621 38.5622 41.4605 38.5624 41.4593 38.5626C41.4554 38.563 41.4517 38.5636 41.4478 38.5641C41.4467 38.5643 41.4455 38.5645 41.4445 38.5646C41.4406 38.5652 41.4367 38.5657 41.4328 38.5662C41.4314 38.5664 41.4298 38.5666 41.4284 38.5668C41.4242 38.5673 41.4199 38.568 41.4155 38.5686C41.4147 38.5687 41.4139 38.5687 41.4129 38.5689C41.409 38.5695 41.4051 38.5699 41.4014 38.5705C41.4002 38.5706 41.3995 38.5706 41.3983 38.5708C41.3938 38.5715 41.3893 38.5721 41.3848 38.5726C41.3838 38.5728 41.3829 38.573 41.382 38.573C41.3778 38.5735 41.3736 38.5742 41.3693 38.5746C41.3688 38.5747 41.3683 38.5747 41.3676 38.5749C41.363 38.5755 41.3587 38.5759 41.3542 38.5766C41.3531 38.5766 41.3517 38.5768 41.3506 38.577C41.3462 38.5775 41.3416 38.5781 41.3371 38.5788C41.3367 38.5788 41.3362 38.5788 41.3358 38.579C41.3316 38.5793 41.3274 38.5799 41.3231 38.5803C41.3221 38.5806 41.321 38.5807 41.32 38.5809C41.3155 38.5814 41.3111 38.5819 41.3065 38.5825C41.3055 38.5825 41.3046 38.5826 41.3036 38.5828C41.2995 38.5834 41.2956 38.5837 41.2916 38.5843C41.291 38.5843 41.2898 38.5844 41.2891 38.5844C41.2847 38.585 41.2801 38.5854 41.2757 38.586C41.2745 38.5862 41.2736 38.5863 41.2723 38.5863C41.2632 38.5874 41.2538 38.5885 41.2446 38.5895C41.2436 38.5897 41.2424 38.5899 41.2413 38.5899C41.2367 38.5904 41.2323 38.591 41.2277 38.5915C41.227 38.5915 41.2263 38.5916 41.2258 38.5916C41.2215 38.5922 41.2171 38.5925 41.2129 38.5931C41.212 38.5931 41.2113 38.5932 41.2106 38.5932C41.2059 38.5938 41.2014 38.5943 41.1969 38.5947C41.1958 38.5948 41.1947 38.595 41.1937 38.595C41.1896 38.5955 41.1854 38.5959 41.1813 38.5964C41.1806 38.5964 41.1801 38.5964 41.1794 38.5966C41.175 38.597 41.1702 38.5975 41.1656 38.598C41.1646 38.598 41.1637 38.5982 41.1626 38.5982C41.1579 38.5987 41.1533 38.5992 41.1487 38.5996C41.1484 38.5996 41.1478 38.5998 41.1475 38.5998C41.1427 38.6001 41.1385 38.6007 41.1337 38.601C41.1332 38.6012 41.1325 38.6012 41.1318 38.6012C41.1272 38.6017 41.1224 38.6023 41.1177 38.6026C41.1166 38.6027 41.1161 38.6027 41.115 38.6027C41.1106 38.6033 41.1062 38.6036 41.1018 38.604C41.1015 38.6042 41.1011 38.6042 41.1007 38.6042C41.0958 38.6045 41.091 38.6051 41.0863 38.6054C41.0858 38.6056 41.0845 38.6056 41.0838 38.6058C41.0743 38.6065 41.0646 38.6074 41.0549 38.6083C41.054 38.6083 41.0531 38.6084 41.0524 38.6084C41.0475 38.6087 41.0431 38.6093 41.0381 38.6096C41.0376 38.6096 41.0369 38.6096 41.0364 38.6098C41.032 38.6102 41.0276 38.6105 41.0233 38.6109C41.0226 38.6109 41.0217 38.6111 41.021 38.6111C41.0165 38.6114 41.0117 38.6118 41.0071 38.6121C41.0062 38.6123 41.0052 38.6123 41.0043 38.6123C40.9999 38.6127 40.9951 38.613 40.9907 38.6134C40.9905 38.6136 40.99 38.6136 40.9898 38.6136C40.9852 38.6139 40.9801 38.6143 40.9755 38.6146C40.9747 38.6146 40.9738 38.6147 40.9729 38.6147C40.9681 38.6151 40.9634 38.6155 40.9586 38.6158C40.9583 38.6158 40.9574 38.6158 40.957 38.616C40.9526 38.6162 40.9484 38.6165 40.944 38.6169C40.9433 38.6169 40.9422 38.6171 40.9413 38.6171C40.9367 38.6174 40.932 38.6178 40.9276 38.618C40.9265 38.6181 40.9256 38.6181 40.9246 38.6183C40.92 38.6185 40.9158 38.6188 40.9113 38.6191C40.911 38.6191 40.9105 38.6191 40.9101 38.6191C40.9054 38.6196 40.9004 38.6199 40.8957 38.62C40.8948 38.6203 40.8941 38.6203 40.8932 38.6203C40.8835 38.6209 40.874 38.6215 40.8641 38.622C40.8634 38.6222 40.8623 38.6222 40.8614 38.6222C40.8567 38.6225 40.8519 38.6229 40.8472 38.6231C40.8466 38.6231 40.8459 38.6231 40.8454 38.6232C40.8408 38.6234 40.8364 38.6238 40.8318 38.624C40.8313 38.624 40.8306 38.624 40.83 38.6241C40.8253 38.6243 40.8203 38.6247 40.8156 38.6248C40.8149 38.6248 40.8138 38.6248 40.8131 38.625C40.8084 38.6251 40.8034 38.6256 40.7987 38.6257C40.7937 38.6259 40.7886 38.6262 40.7837 38.6264C40.7831 38.6264 40.7823 38.6266 40.7816 38.6266C40.7768 38.6267 40.7717 38.6271 40.7667 38.6273C40.7664 38.6273 40.7662 38.6273 40.7659 38.6273C40.7611 38.6275 40.7563 38.6278 40.7518 38.628C40.751 38.628 40.7505 38.628 40.7498 38.628C40.7449 38.6282 40.7401 38.6285 40.7352 38.6287C40.7345 38.6287 40.7338 38.6287 40.7332 38.6287C40.7285 38.6289 40.7235 38.6292 40.7189 38.6294C40.7186 38.6294 40.7184 38.6294 40.7182 38.6294C40.7133 38.6296 40.7085 38.6298 40.7036 38.63C40.7027 38.63 40.7018 38.63 40.701 38.6301C40.6962 38.6303 40.6911 38.6305 40.6863 38.6307H40.6861C40.6814 38.6308 40.6766 38.631 40.6719 38.6312C40.671 38.6312 40.6697 38.6312 40.6689 38.6312C40.6643 38.6313 40.6593 38.6316 40.6546 38.6317C40.6541 38.6317 40.6533 38.6317 40.6528 38.6317C40.6482 38.6319 40.6438 38.632 40.6392 38.6322C40.6385 38.6322 40.638 38.6322 40.6373 38.6322C40.6324 38.6324 40.6278 38.6324 40.6228 38.6326C40.622 38.6326 40.6214 38.6326 40.6205 38.6328C40.6105 38.6329 40.6008 38.6333 40.5909 38.6335C40.59 38.6335 40.5893 38.6335 40.5884 38.6335C40.5835 38.6336 40.5786 38.6338 40.5736 38.6338C40.5733 38.6338 40.5729 38.6338 40.5726 38.6338C40.568 38.634 40.5632 38.634 40.5586 38.6342C40.5579 38.6342 40.5571 38.6342 40.5564 38.6342C40.5516 38.6344 40.547 38.6344 40.5422 38.6345C40.5412 38.6345 40.5403 38.6345 40.5392 38.6345C40.5347 38.6345 40.5303 38.6347 40.5257 38.6347C40.5253 38.6347 40.525 38.6347 40.5246 38.6347C40.5198 38.6349 40.5147 38.6349 40.51 38.6349C40.5089 38.6349 40.5082 38.6349 40.5072 38.6349C40.5022 38.6351 40.4974 38.6351 40.4925 38.6351H40.4923C40.4876 38.6352 40.4828 38.6352 40.4781 38.6352C40.477 38.6352 40.4761 38.6352 40.4751 38.6352C40.4703 38.6354 40.4657 38.6354 40.4609 38.6354C40.4601 38.6354 40.4592 38.6354 40.4583 38.6354C40.4539 38.6354 40.4495 38.6354 40.4451 38.6354C40.4447 38.6354 40.4437 38.6356 40.4433 38.6356C40.4384 38.6356 40.4338 38.6356 40.4289 38.6356C40.428 38.6356 40.4267 38.6356 40.4259 38.6356C40.4209 38.6356 40.4163 38.6356 40.4112 38.6356Z" fill="#286834"/>
<path d="M30.7856 38.5687L21.213 38.5021C21.208 38.5021 21.2033 38.5021 21.1983 38.5021C21.1973 38.5021 21.1964 38.5021 21.1953 38.5021C21.1906 38.5019 21.1858 38.5019 21.181 38.5019C21.1803 38.5019 21.1793 38.5019 21.1786 38.5019C21.1742 38.5017 21.1701 38.5017 21.1655 38.5017C21.1648 38.5017 21.1639 38.5017 21.1631 38.5017C21.1585 38.5015 21.1535 38.5015 21.149 38.5013C21.1479 38.5013 21.1467 38.5013 21.1456 38.5013C21.1408 38.5013 21.1361 38.5012 21.1313 38.5012H21.1311C21.1262 38.501 21.1216 38.501 21.1167 38.5008C21.1156 38.5008 21.1142 38.5008 21.1132 38.5008C21.1084 38.5006 21.1038 38.5006 21.099 38.5005C21.0983 38.5005 21.098 38.5005 21.0973 38.5005C21.093 38.5003 21.0886 38.5003 21.0844 38.5001C21.0833 38.5001 21.0819 38.5001 21.0809 38.5001C21.0763 38.4999 21.0717 38.4999 21.0671 38.4997C21.0661 38.4997 21.065 38.4997 21.064 38.4996C21.0597 38.4996 21.0553 38.4994 21.0511 38.4993C21.0505 38.4993 21.0498 38.4993 21.0491 38.4993C21.0444 38.499 21.0396 38.4989 21.035 38.4989C21.0338 38.4987 21.0327 38.4987 21.0317 38.4987C21.0269 38.4985 21.0223 38.4984 21.0176 38.4984C21.0169 38.4982 21.0163 38.4982 21.0156 38.4982C21.0114 38.498 21.0072 38.498 21.0029 38.4978C21.0019 38.4978 21.0005 38.4977 20.9994 38.4977C20.9948 38.4975 20.9902 38.4973 20.9857 38.4971C20.9846 38.4971 20.9837 38.4971 20.9827 38.4971C20.9786 38.4969 20.9744 38.4968 20.9703 38.4966C20.9694 38.4966 20.9684 38.4966 20.9675 38.4964C20.9631 38.4962 20.9583 38.4961 20.9537 38.4959C20.9525 38.4959 20.9513 38.4959 20.95 38.4957C20.9456 38.4955 20.9412 38.4953 20.9368 38.4952C20.9364 38.4952 20.9363 38.4952 20.9357 38.4952C20.9308 38.495 20.9264 38.4948 20.9215 38.4944C20.9204 38.4944 20.9193 38.4944 20.9183 38.4944C20.9135 38.4941 20.9088 38.4939 20.904 38.4937C20.9036 38.4937 20.9028 38.4936 20.9024 38.4936C20.8978 38.4934 20.8932 38.4933 20.8887 38.4931C20.8881 38.4928 20.8874 38.4928 20.8867 38.4928C20.8818 38.4927 20.877 38.4924 20.8721 38.4922C20.8716 38.4922 20.8705 38.492 20.8698 38.492C20.865 38.4918 20.8603 38.4915 20.8555 38.4913C20.8553 38.4913 20.8552 38.4913 20.855 38.4913C20.8499 38.4909 20.8451 38.4908 20.84 38.4904C20.8393 38.4904 20.8386 38.4902 20.8377 38.4902C20.8326 38.4901 20.828 38.4897 20.8231 38.4893C20.8227 38.4893 20.8223 38.4893 20.8222 38.4893C20.8172 38.4892 20.8125 38.4888 20.8075 38.4884C20.807 38.4884 20.8067 38.4884 20.8061 38.4884C20.801 38.4881 20.7961 38.4877 20.7911 38.4874C20.7904 38.4874 20.7903 38.4874 20.7895 38.4874C20.7848 38.4871 20.7797 38.4867 20.7747 38.4865C20.7746 38.4865 20.7746 38.4865 20.7744 38.4864C20.7693 38.4862 20.7642 38.4858 20.7592 38.4855C20.7585 38.4855 20.758 38.4853 20.7573 38.4853C20.747 38.4846 20.737 38.4839 20.7268 38.4832C20.7266 38.4832 20.7259 38.4832 20.7257 38.4832C20.7206 38.4829 20.7155 38.4823 20.7102 38.482C20.71 38.482 20.71 38.482 20.7098 38.482C20.7051 38.4816 20.6998 38.4813 20.6948 38.4809C20.6945 38.4809 20.6941 38.4809 20.6936 38.4807C20.6887 38.4804 20.6834 38.48 20.6784 38.4796C20.6781 38.4796 20.6779 38.4795 20.6774 38.4795C20.667 38.4788 20.6568 38.4779 20.6462 38.477C20.646 38.477 20.646 38.477 20.6458 38.477C18.1011 38.2681 16.0012 36.7871 15.2214 34.7941C16.4879 35.6974 18.1878 36.2558 20.063 36.2689L30.8119 36.3437L30.7856 38.5687Z" fill="#DBD8D7"/>
<path d="M33.3776 23.4968L20.3783 9.62129C17.9852 7.06701 17.8286 3.33996 20.0288 1.297C22.2287 -0.745966 25.9522 -0.331339 28.3453 2.22294L41.3446 16.0985C43.7377 18.6529 43.8943 22.38 41.6943 24.4229H41.6941C39.4942 26.4659 35.7707 26.0513 33.3776 23.4968Z" fill="#2D58AE"/>
<path d="M26.9558 16.6426L20.4095 9.65462C17.9992 7.08182 17.8288 3.33994 20.029 1.29698C22.2289 -0.745981 25.9665 -0.316355 28.3769 2.25645L34.9232 9.24423L26.9558 16.6426Z" fill="#F5F5F4"/>
<path d="M39.2693 19.5409C38.7552 19.5409 38.2099 19.3105 37.7955 18.8681L31.6377 12.295L34.0202 10.0828L40.178 16.656C40.8988 17.4252 40.9497 18.5442 40.2918 19.155C40.0121 19.4147 39.6491 19.5409 39.2693 19.5409Z" fill="#677BC5"/>
<path d="M31.6376 12.295L25.4798 5.722C24.759 4.95256 24.7081 3.8336 25.366 3.22278C25.6456 2.96306 26.0085 2.83691 26.3885 2.83691C26.9024 2.83691 27.4479 3.06734 27.8621 3.50966L34.0201 10.0828L31.6376 12.295Z" fill="#F8F8F7"/>
<path d="M38.2607 25.7205C36.5539 25.7205 34.7479 24.9594 33.3777 23.4968L26.9561 16.6424L28.5859 15.1287L35.9367 22.9754C37.1165 24.2347 38.5375 25.075 39.9478 25.4535C39.4112 25.6322 38.8417 25.7205 38.2607 25.7205Z" fill="#2C539F"/>
<path d="M20.377 9.62006C20.3765 9.61953 20.3758 9.61864 20.3753 9.61812C20.376 9.61882 20.3763 9.61917 20.377 9.62006ZM20.3656 9.60753C20.3649 9.60682 20.3642 9.60612 20.3635 9.60541C20.3642 9.60594 20.3651 9.607 20.3656 9.60753ZM20.3543 9.59535C20.3539 9.595 20.3539 9.59482 20.3536 9.59447C20.3538 9.59465 20.3541 9.59518 20.3543 9.59535ZM20.3321 9.57101C20.3315 9.5703 20.3312 9.56995 20.3307 9.5696C20.3312 9.56995 20.3315 9.57048 20.3321 9.57101ZM20.3218 9.55971C20.3213 9.55918 20.3206 9.5583 20.3201 9.55777C20.3208 9.55848 20.3211 9.55901 20.3218 9.55971ZM20.3106 9.54719C20.3099 9.54631 20.3093 9.54578 20.3086 9.54507C20.3092 9.5456 20.3099 9.54648 20.3106 9.54719ZM20.2998 9.53537C20.2993 9.53466 20.2989 9.53448 20.2986 9.53378C20.2989 9.53431 20.2995 9.53484 20.2998 9.53537ZM20.289 9.52319C20.2883 9.52249 20.2876 9.5216 20.2869 9.5209C20.2876 9.52178 20.2883 9.52249 20.289 9.52319ZM20.2772 9.50996C20.2771 9.50996 20.2771 9.50978 20.2771 9.50978L20.2772 9.50996ZM20.2675 9.49902C20.267 9.49849 20.2661 9.49761 20.2656 9.4969C20.2663 9.49779 20.2668 9.49814 20.2675 9.49902ZM20.246 9.4745C20.2455 9.47414 20.2448 9.47326 20.2444 9.47291C20.245 9.47344 20.2453 9.47397 20.246 9.4745ZM20.2349 9.46197C20.2344 9.46144 20.2337 9.46073 20.2331 9.46003C20.2338 9.46091 20.2342 9.46126 20.2349 9.46197ZM20.2236 9.44909L20.2234 9.44891C20.2236 9.44909 20.2234 9.44891 20.2236 9.44909ZM20.2139 9.43797C20.2132 9.43709 20.2127 9.43638 20.212 9.43568C20.2125 9.43638 20.2134 9.43727 20.2139 9.43797ZM20.2025 9.42474C20.2023 9.42439 20.2019 9.42403 20.2016 9.42368C20.2018 9.42386 20.2023 9.42439 20.2025 9.42474ZM20.1709 9.38804C20.1709 9.38786 20.1705 9.38751 20.1705 9.38751C20.1707 9.38751 20.1709 9.38786 20.1709 9.38804ZM20.161 9.37622C20.1605 9.37551 20.16 9.37498 20.1593 9.3741C20.1598 9.37481 20.1605 9.37569 20.161 9.37622ZM20.1497 9.36299L20.1496 9.36264C20.1497 9.36281 20.1496 9.36281 20.1497 9.36299ZM20.1402 9.3517C20.1397 9.35099 20.1391 9.35046 20.1386 9.34975C20.1391 9.35028 20.1399 9.35117 20.1402 9.3517ZM20.1293 9.33864C20.1289 9.33811 20.1286 9.33776 20.1282 9.3374C20.1287 9.33793 20.1287 9.33811 20.1293 9.33864ZM20.1189 9.32629C20.1189 9.32611 20.1185 9.32576 20.1183 9.32558C20.1185 9.32576 20.1187 9.32611 20.1189 9.32629ZM20.1088 9.31412C20.1083 9.31359 20.1081 9.31323 20.1076 9.3127C20.1079 9.31306 20.1085 9.31376 20.1088 9.31412ZM20.0882 9.28906C20.0878 9.28871 20.0877 9.28835 20.0875 9.28818C20.0875 9.28835 20.088 9.28888 20.0882 9.28906ZM20.0674 9.26365H20.0672C20.0674 9.26383 20.0672 9.26348 20.0674 9.26365ZM20.0573 9.25148C20.0571 9.25113 20.057 9.25095 20.0568 9.25077C20.0571 9.25113 20.0571 9.25113 20.0573 9.25148Z" fill="#2C539F"/>
<path d="M26.956 16.6426L20.4095 9.65462C20.4062 9.65109 20.403 9.64756 20.3995 9.64403C20.3988 9.64315 20.3981 9.64245 20.3974 9.64174C20.3942 9.63821 20.3908 9.63451 20.3875 9.63115C20.3871 9.63062 20.3868 9.63027 20.3863 9.62974C20.3833 9.62656 20.3803 9.62321 20.3773 9.62004C20.3766 9.61916 20.3762 9.6188 20.3755 9.6181C20.3723 9.61457 20.369 9.61104 20.3658 9.60751C20.3653 9.60698 20.3644 9.60592 20.3637 9.60539C20.3607 9.60204 20.3575 9.59869 20.3545 9.59534C20.3543 9.59516 20.354 9.59463 20.3538 9.59445C20.3505 9.59092 20.3473 9.5874 20.3439 9.58387C20.3432 9.58298 20.3425 9.58228 20.3418 9.5814C20.3386 9.57787 20.3355 9.57434 20.3323 9.57099C20.3318 9.57046 20.3314 9.56993 20.3309 9.56958C20.3281 9.56622 20.3251 9.56305 20.3221 9.5597C20.3214 9.55899 20.321 9.55846 20.3203 9.55775C20.3171 9.55423 20.314 9.5507 20.3108 9.54717C20.3101 9.54646 20.3094 9.54558 20.3088 9.54505C20.306 9.54188 20.3028 9.53852 20.3 9.53535C20.2997 9.53482 20.2991 9.53429 20.2988 9.53376C20.2956 9.53023 20.2924 9.5267 20.2893 9.52317C20.2886 9.52247 20.2879 9.52176 20.2871 9.52088C20.2838 9.51718 20.2808 9.51365 20.2774 9.50994L20.2773 9.50976C20.2741 9.50624 20.2709 9.50253 20.2677 9.499C20.267 9.49812 20.2665 9.49777 20.2658 9.49689C20.2626 9.49318 20.2595 9.48965 20.2563 9.48612C20.2558 9.48559 20.2554 9.48506 20.2551 9.48453C20.2521 9.48136 20.2491 9.47801 20.2462 9.47448C20.2455 9.47395 20.2452 9.47342 20.2446 9.47289C20.2413 9.46918 20.2383 9.46566 20.2351 9.46195C20.2344 9.46125 20.2341 9.46089 20.2334 9.46001C20.2302 9.4563 20.227 9.45277 20.2238 9.44907C20.2237 9.44889 20.2238 9.44907 20.2237 9.44889C20.2205 9.44519 20.2173 9.44166 20.2141 9.43795C20.2136 9.43725 20.2127 9.43637 20.2122 9.43566C20.209 9.43213 20.2058 9.42825 20.2027 9.42472C20.2025 9.42437 20.202 9.42384 20.2018 9.42366C20.1988 9.42013 20.1958 9.41678 20.1928 9.41325C20.1923 9.41272 20.1919 9.41219 20.1914 9.41149C20.1882 9.40796 20.185 9.40425 20.182 9.40073C20.1815 9.40002 20.1808 9.39914 20.1803 9.39861C20.1771 9.39508 20.1743 9.39155 20.1711 9.38802C20.1711 9.38785 20.1709 9.38749 20.1708 9.38749C20.1676 9.38379 20.1644 9.38008 20.1612 9.3762C20.1607 9.37567 20.16 9.37479 20.1595 9.37408C20.1563 9.37038 20.1531 9.36667 20.1499 9.36297C20.1498 9.36279 20.1499 9.36279 20.1498 9.36262C20.1466 9.35891 20.1436 9.35538 20.1404 9.35168C20.1401 9.35115 20.1394 9.35026 20.1388 9.34974C20.1357 9.34603 20.1327 9.34232 20.1295 9.33862C20.129 9.33809 20.129 9.33791 20.1284 9.33739C20.1254 9.33368 20.1223 9.32998 20.1191 9.32627C20.1189 9.32609 20.1187 9.32574 20.1186 9.32556C20.1154 9.32168 20.1122 9.31798 20.109 9.3141C20.1087 9.31374 20.1081 9.31304 20.1078 9.31268C20.1013 9.30474 20.0947 9.29698 20.0884 9.28904C20.0882 9.28887 20.0877 9.28834 20.0877 9.28816C20.0843 9.2841 20.081 9.28022 20.0778 9.27616L20.0776 9.27599C20.0741 9.27175 20.0709 9.26787 20.0676 9.26363C20.0674 9.26346 20.0676 9.26381 20.0674 9.26363C20.0642 9.25958 20.0609 9.25552 20.0575 9.25146C20.0574 9.25111 20.0574 9.25111 20.057 9.25075C20.0503 9.24264 20.0438 9.23452 20.0373 9.22623L20.0371 9.22606C18.4353 7.23673 18.0616 4.69357 18.9682 2.75506C19.1864 4.2957 19.953 5.91345 21.2352 7.28207L28.586 15.1287L26.9562 16.6424L26.956 16.6426Z" fill="#DBD8D7"/>
<path d="M1.0967 30.0244L11.1818 13.7425C13.0383 10.745 16.6054 9.60768 19.1491 11.202C21.6929 12.7964 22.2498 16.5189 20.3932 19.5162L10.3083 35.7983C8.45169 38.7956 4.88452 39.9331 2.34086 38.3387C-0.202857 36.7442 -0.759876 33.0219 1.0967 30.0244Z" fill="#DC2927"/>
<path d="M6.13916 21.8835L11.1817 13.7425C13.0383 10.745 16.6054 9.6077 19.149 11.202C21.6928 12.7964 22.2498 16.5189 20.3931 19.5162L15.3507 27.6573L6.13916 21.8835Z" fill="#F5F5F4"/>
<path d="M7.94422 35.636C7.6768 35.636 7.4146 35.5666 7.18122 35.4204C6.42049 34.9435 6.254 33.8305 6.80915 32.9342L11.5524 25.2763L14.3069 27.0029L9.56368 34.6606C9.17886 35.2819 8.54822 35.636 7.94422 35.636Z" fill="#E6644E"/>
<path d="M14.3068 27.0029L11.5522 25.2763L16.2955 17.6186C16.6803 16.9974 17.3109 16.6433 17.9149 16.6433C18.1824 16.6433 18.4445 16.7126 18.678 16.8589C19.4386 17.3356 19.6051 18.4488 19.0499 19.3451L14.3068 27.0029Z" fill="#F8F8F7"/>
<path d="M0.907227 30.3478C0.907433 30.3475 0.907364 30.3476 0.90757 30.3473L0.907227 30.3478ZM0.922795 30.3199C0.922932 30.3196 0.923209 30.3192 0.923347 30.3189C0.923278 30.319 0.922864 30.3198 0.922795 30.3199ZM0.930925 30.3053C0.930993 30.3051 0.9312 30.305 0.931268 30.3048C0.9312 30.305 0.931062 30.3051 0.930925 30.3053ZM0.946768 30.2773C0.946906 30.2771 0.947112 30.2767 0.947318 30.2764C0.947112 30.2767 0.946974 30.2769 0.946768 30.2773ZM0.962888 30.249C0.963094 30.2487 0.963094 30.2487 0.963232 30.2485C0.963094 30.2487 0.963026 30.2488 0.962888 30.249ZM0.971085 30.2347C0.971154 30.2347 0.97136 30.2342 0.971429 30.2342C0.97136 30.2344 0.971154 30.2345 0.971085 30.2347ZM0.978938 30.2212C0.979144 30.2208 0.979352 30.2204 0.97949 30.2203C0.979282 30.2206 0.979144 30.2208 0.978938 30.2212ZM0.987068 30.2072C0.987411 30.2065 0.987755 30.2059 0.988099 30.2055C0.987755 30.2059 0.987411 30.2067 0.987068 30.2072ZM1.01193 30.1647C1.01221 30.1643 1.01256 30.1636 1.01283 30.1633C1.01249 30.1638 1.01221 30.1642 1.01193 30.1647ZM1.01979 30.1514C1.0202 30.1507 1.02048 30.1502 1.02089 30.1495C1.02041 30.1504 1.0202 30.1507 1.01979 30.1514ZM1.0284 30.1368C1.02881 30.1363 1.02916 30.1358 1.0295 30.135C1.02916 30.1356 1.02874 30.1363 1.0284 30.1368ZM1.03673 30.123C1.03701 30.1225 1.03708 30.1223 1.03735 30.122C1.03715 30.1223 1.03694 30.1227 1.03673 30.123ZM1.04479 30.1096C1.04528 30.1088 1.0459 30.1077 1.04645 30.1068C1.0459 30.1077 1.04534 30.1086 1.04479 30.1096ZM1.05382 30.0946C1.05416 30.0939 1.05444 30.0936 1.05478 30.093C1.05444 30.0936 1.05416 30.0941 1.05382 30.0946ZM1.07056 30.0669C1.07104 30.0662 1.07145 30.0655 1.07194 30.0648C1.07159 30.0653 1.0709 30.0664 1.07056 30.0669ZM1.07882 30.0536C1.07924 30.0528 1.07951 30.0524 1.07986 30.0518C1.07951 30.0524 1.07917 30.0528 1.07882 30.0536ZM1.08744 30.0394C1.08799 30.0385 1.0884 30.0378 1.08895 30.0371C1.08847 30.0378 1.08792 30.0387 1.08744 30.0394ZM11.1818 13.7425C11.1872 13.7338 11.1927 13.7248 11.1981 13.7162C11.1926 13.725 11.1872 13.7336 11.1818 13.7425ZM11.2112 13.6954C11.2133 13.692 11.2155 13.6885 11.2176 13.6851C11.2154 13.6887 11.2133 13.692 11.2112 13.6954ZM11.2341 13.6592C11.8147 12.7481 12.5544 12.0139 13.3743 11.4816C12.5545 12.0139 11.8146 12.7482 11.2341 13.6592Z" fill="#E4E1E0"/>
<path d="M1.0232 37.1036C-0.268779 35.3216 -0.369491 32.6558 0.907259 30.3478L0.907603 30.3473C0.912633 30.3381 0.917731 30.3289 0.922827 30.3199C0.922896 30.3198 0.923311 30.319 0.923379 30.3189C0.925928 30.3143 0.928407 30.3099 0.930957 30.3053C0.931095 30.3051 0.931232 30.305 0.931301 30.3048C0.936468 30.2956 0.941634 30.2864 0.946801 30.2773C0.947007 30.2769 0.947145 30.2767 0.947351 30.2764C0.952518 30.2672 0.957685 30.2582 0.962921 30.249C0.963058 30.2488 0.963127 30.2487 0.963265 30.2485C0.965882 30.2439 0.968501 30.2393 0.971118 30.2347C0.971186 30.2345 0.971393 30.2344 0.971462 30.2342C0.974012 30.2298 0.976422 30.2256 0.978971 30.2212C0.979177 30.2207 0.979314 30.2206 0.979523 30.2203C0.982002 30.216 0.984619 30.2114 0.9871 30.2072C0.987444 30.2067 0.987788 30.2059 0.988132 30.2054C0.993161 30.1968 0.998191 30.1882 1.00322 30.1795C1.0037 30.1788 1.00411 30.1781 1.00453 30.1772C1.00701 30.173 1.00942 30.1689 1.01197 30.1647C1.01224 30.1642 1.01252 30.1638 1.01286 30.1633C1.01521 30.1592 1.01748 30.1553 1.01982 30.1514C1.02023 30.1507 1.02044 30.1504 1.02092 30.1495C1.0234 30.1453 1.02595 30.141 1.02843 30.1368C1.02878 30.1362 1.02919 30.1356 1.02953 30.135C1.03188 30.1311 1.03442 30.1269 1.03677 30.123C1.03697 30.1227 1.03718 30.1223 1.03739 30.122C1.0398 30.1179 1.04235 30.1137 1.04483 30.1096C1.04538 30.1085 1.04593 30.1076 1.04648 30.1068C1.04889 30.1028 1.05137 30.0987 1.05385 30.0946C1.05419 30.0941 1.05447 30.0936 1.05482 30.093C1.05709 30.0892 1.05936 30.0854 1.06163 30.0817C1.06212 30.0808 1.06267 30.08 1.06315 30.0793C1.06563 30.0752 1.06811 30.071 1.07059 30.0669C1.07094 30.0664 1.07162 30.0653 1.07197 30.0648C1.07424 30.0611 1.07658 30.0572 1.07886 30.0535C1.0792 30.0528 1.07955 30.0524 1.07989 30.0517C1.08237 30.0477 1.08499 30.0435 1.08747 30.0394C1.08795 30.0387 1.0885 30.0378 1.08898 30.0371C1.0916 30.0329 1.09415 30.0287 1.09677 30.0244L6.13929 21.8834L8.02404 23.0648L2.36195 32.2062C1.37418 33.8008 0.938327 35.5424 1.0232 37.1036Z" fill="#C82B27"/>
<path d="M8.02391 23.0649L6.13916 21.8835L11.1817 13.7425C11.1871 13.7337 11.1925 13.725 11.198 13.7162C11.2024 13.7091 11.2066 13.7024 11.2111 13.6954C11.2132 13.692 11.2153 13.6887 11.2175 13.6851C11.2182 13.6841 11.2189 13.683 11.2196 13.682L11.2198 13.6816C11.2245 13.674 11.2292 13.6668 11.234 13.6592C11.8145 12.7483 12.5544 12.0139 13.3742 11.4816C14.3776 10.83 15.5004 10.4812 16.5972 10.4812C16.8895 10.4812 17.1803 10.5059 17.4662 10.5564C16.0358 11.1677 14.6738 12.3287 13.6861 13.9233L8.02391 23.0649Z" fill="#DBD8D7"/>
<path d="M57.2494 37.0646C56.6737 35.7746 56.1103 34.4729 55.5347 33.1829H55.4409L53.726 37.0646H57.2494ZM51.671 39.5739L55.2411 31.6089C55.2763 31.5376 55.3352 31.4788 55.4409 31.4788H55.5583C55.664 31.4788 55.7227 31.5376 55.7578 31.6089L59.3047 39.5739C59.3749 39.7274 59.2811 39.8815 59.1049 39.8815H58.6353C58.5295 39.8815 58.4589 39.8107 58.4355 39.7516L57.5664 37.7984H53.3973L52.5401 39.7516C52.5165 39.8107 52.4461 39.8815 52.3405 39.8815H51.8707C51.6945 39.8815 51.6005 39.7274 51.671 39.5739Z" fill="#18191A"/>
<path d="M68.0293 31.8216C68.0293 31.7036 68.1349 31.5966 68.2522 31.5966H68.6984C68.8276 31.5966 68.9216 31.7036 68.9216 31.8216V36.7569C68.9216 38.1061 69.7554 39.1597 71.1295 39.1597C72.5153 39.1597 73.3609 38.1298 73.3609 36.7809V31.8216C73.3609 31.7036 73.4549 31.5966 73.584 31.5966H74.0303C74.1478 31.5966 74.2534 31.7036 74.2534 31.8216V36.8282C74.2534 38.6272 72.9851 40 71.1295 40C69.2856 40 68.0293 38.6272 68.0293 36.8282V31.8216Z" fill="#18191A"/>
<path d="M83.6471 38.6386C83.7058 38.5678 83.7644 38.4851 83.8231 38.4139C83.9407 38.2602 84.07 38.1654 84.2343 38.3074C84.3165 38.3787 85.1738 39.2069 86.219 39.2069C87.1702 39.2069 87.7926 38.6035 87.7926 37.9048C87.7926 37.0886 87.088 36.6032 85.7376 36.0351C84.4458 35.4668 83.6704 34.9343 83.6704 33.5849C83.6704 32.7804 84.3047 31.4788 86.1719 31.4788C87.3229 31.4788 88.1802 32.0822 88.1802 32.0822C88.2507 32.1177 88.3916 32.2599 88.2507 32.4847C88.2038 32.5554 88.1567 32.6384 88.1096 32.7096C88.004 32.8753 87.8866 32.9224 87.6988 32.816C87.6166 32.7687 86.8766 32.2714 86.1601 32.2714C84.9154 32.2714 84.5396 33.0764 84.5396 33.5735C84.5396 34.3666 85.1385 34.8278 86.125 35.242C87.7104 35.8929 88.7323 36.4968 88.7323 37.8697C88.7323 39.1005 87.5695 40 86.1955 40C84.8096 40 83.8702 39.1833 83.7175 39.0412C83.6236 38.9585 83.506 38.8636 83.6471 38.6386Z" fill="#18191A"/>
<path d="M99.2298 32.3898H97.1865C97.0572 32.3898 96.9634 32.2834 96.9634 32.165V31.8216C96.9634 31.7036 97.0572 31.5967 97.1865 31.5967H102.166C102.295 31.5967 102.389 31.7036 102.389 31.8216V32.165C102.389 32.2834 102.295 32.3898 102.166 32.3898H100.123V39.6567C100.123 39.7751 100.017 39.8815 99.8994 39.8815H99.4531C99.3358 39.8815 99.2298 39.7751 99.2298 39.6567V32.3898Z" fill="#18191A"/>
<path d="M114.52 35.8573C115.424 35.8573 116.211 35.0998 116.211 34.1296C116.211 33.2301 115.424 32.4611 114.52 32.4611H112.241V35.8573H114.52ZM111.313 31.8216C111.313 31.7036 111.407 31.5967 111.537 31.5967H114.578C115.988 31.5967 117.138 32.7097 117.138 34.1176C117.138 35.2068 116.422 36.1179 115.4 36.532L117.009 39.5382C117.092 39.6923 117.009 39.8815 116.81 39.8815H116.211C116.105 39.8815 116.046 39.8223 116.023 39.7751L114.461 36.6389H112.218V39.6567C112.218 39.7751 112.112 39.8815 111.995 39.8815H111.537C111.407 39.8815 111.313 39.7751 111.313 39.6567V31.8216Z" fill="#18191A"/>
<path d="M131.16 37.0646C130.584 35.7746 130.021 34.4729 129.445 33.1829H129.351L127.637 37.0646H131.16ZM125.581 39.5739L129.151 31.6089C129.187 31.5376 129.246 31.4788 129.351 31.4788H129.469C129.574 31.4788 129.633 31.5376 129.668 31.6089L133.215 39.5739C133.285 39.7274 133.191 39.8815 133.015 39.8815H132.546C132.44 39.8815 132.369 39.8107 132.346 39.7516L131.477 37.7984H127.308L126.45 39.7516C126.427 39.8107 126.356 39.8815 126.251 39.8815H125.781C125.605 39.8815 125.511 39.7274 125.581 39.5739Z" fill="#18191A"/>
<path d="M142.127 31.8216C142.127 31.7036 142.221 31.5967 142.35 31.5967H142.808C142.926 31.5967 143.031 31.7036 143.031 31.8216V39.0883H146.414C146.543 39.0883 146.637 39.195 146.637 39.3133V39.6567C146.637 39.7751 146.543 39.8815 146.414 39.8815H142.35C142.221 39.8815 142.127 39.7751 142.127 39.6567V31.8216Z" fill="#18191A"/>
<path d="M155.526 31.8216C155.526 31.7036 155.632 31.5967 155.749 31.5967H156.219C156.336 31.5967 156.442 31.7036 156.442 31.8216V39.6567C156.442 39.7751 156.336 39.8815 156.219 39.8815H155.749C155.632 39.8815 155.526 39.7751 155.526 39.6567V31.8216Z" fill="#18191A"/>
<path d="M170.921 37.0646C170.346 35.7746 169.782 34.4729 169.207 33.1829H169.113L167.398 37.0646H170.921ZM165.343 39.5739L168.913 31.6089C168.948 31.5376 169.007 31.4788 169.113 31.4788H169.23C169.336 31.4788 169.395 31.5376 169.429 31.6089L172.976 39.5739C173.047 39.7274 172.953 39.8815 172.777 39.8815H172.307C172.201 39.8815 172.131 39.8107 172.107 39.7516L171.239 37.7984H167.069L166.212 39.7516C166.189 39.8107 166.118 39.8815 166.012 39.8815H165.543C165.366 39.8815 165.272 39.7274 165.343 39.5739Z" fill="#18191A"/>
<mask id="mask0_1_620" style="mask-type:luminance" maskUnits="userSpaceOnUse" x="51" y="0" width="26" height="29">
<path d="M61.6958 22.7787C66.3121 22.7787 69.6619 19.1723 69.6619 14.5528C69.6619 9.97411 66.3121 6.36792 61.6958 6.36792H57.7739V22.7787H61.6958ZM51.4011 1.18138C51.4011 0.776814 51.7277 0.412115 52.1363 0.412115H62.1044C69.9888 0.412115 76.4435 6.7732 76.4435 14.5528C76.4435 22.414 69.9888 28.7752 62.1044 28.7752H52.1363C51.7277 28.7752 51.4011 28.4105 51.4011 28.0051V1.18138Z" fill="white"/>
</mask>
<g mask="url(#mask0_1_620)">
<path d="M61.6958 22.7787C66.3121 22.7787 69.6619 19.1723 69.6619 14.5528C69.6619 9.97411 66.3121 6.36792 61.6958 6.36792H57.7739V22.7787H61.6958ZM51.4011 1.18138C51.4011 0.776814 51.7277 0.412115 52.1363 0.412115H62.1044C69.9888 0.412115 76.4435 6.7732 76.4435 14.5528C76.4435 22.414 69.9888 28.7752 62.1044 28.7752H52.1363C51.7277 28.7752 51.4011 28.4105 51.4011 28.0051V1.18138Z" fill="url(#paint0_linear_1_620)"/>
</g>
<mask id="mask1_1_620" style="mask-type:luminance" maskUnits="userSpaceOnUse" x="78" y="0" width="34" height="30">
<path d="M83.2219 0.655275C83.263 0.290579 83.6307 0.00686836 83.9571 0.00686836H84.611C84.8154 0.00686836 85.1829 0.169014 85.3055 0.412144L94.7833 17.9161H94.8648L104.342 0.412144C104.466 0.169014 104.833 0.00686836 105.037 0.00686836H105.691C106.018 0.00686836 106.385 0.290579 106.426 0.655275L111.043 27.8835C111.124 28.4106 110.757 28.7752 110.266 28.7752H105.446C105.078 28.7752 104.711 28.4513 104.67 28.1267L102.831 15.6067H102.749L95.886 28.7345C95.7634 28.9774 95.3961 29.1805 95.1917 29.1805H94.4565C94.2114 29.1805 93.8844 28.9774 93.7619 28.7345L86.8579 15.6067H86.7761L84.9785 28.1267C84.938 28.4513 84.611 28.7752 84.2026 28.7752H79.3819C78.8916 28.7752 78.5241 28.4106 78.6056 27.8835L83.2219 0.655275Z" fill="white"/>
</mask>
<g mask="url(#mask1_1_620)">
<path d="M83.2219 0.655275C83.263 0.290579 83.6307 0.00686836 83.9571 0.00686836H84.611C84.8154 0.00686836 85.1829 0.169014 85.3055 0.412144L94.7833 17.9161H94.8648L104.342 0.412144C104.466 0.169014 104.833 0.00686836 105.037 0.00686836H105.691C106.018 0.00686836 106.385 0.290579 106.426 0.655275L111.043 27.8835C111.124 28.4106 110.757 28.7752 110.266 28.7752H105.446C105.078 28.7752 104.711 28.4513 104.67 28.1267L102.831 15.6067H102.749L95.886 28.7345C95.7634 28.9774 95.3961 29.1805 95.1917 29.1805H94.4565C94.2114 29.1805 93.8844 28.9774 93.7619 28.7345L86.8579 15.6067H86.7761L84.9785 28.1267C84.938 28.4513 84.611 28.7752 84.2026 28.7752H79.3819C78.8916 28.7752 78.5241 28.4106 78.6056 27.8835L83.2219 0.655275Z" fill="url(#paint1_linear_1_620)"/>
</g>
<mask id="mask2_1_620" style="mask-type:luminance" maskUnits="userSpaceOnUse" x="113" y="0" width="33" height="30">
<path d="M118.066 0.655275C118.107 0.290579 118.474 0.00686836 118.801 0.00686836H119.455C119.659 0.00686836 120.026 0.169014 120.149 0.412144L129.627 17.9161H129.709L139.186 0.412144C139.309 0.169014 139.677 0.00686836 139.881 0.00686836H140.535C140.861 0.00686836 141.229 0.290579 141.27 0.655275L145.886 27.8835C145.968 28.4106 145.6 28.7752 145.11 28.7752H140.289C139.922 28.7752 139.554 28.4513 139.513 28.1267L137.675 15.6067H137.593L130.73 28.7345C130.607 28.9774 130.239 29.1805 130.035 29.1805H129.3C129.055 29.1805 128.728 28.9774 128.605 28.7345L121.702 15.6067H121.62L119.822 28.1267C119.781 28.4513 119.455 28.7752 119.046 28.7752H114.226C113.735 28.7752 113.368 28.4106 113.449 27.8835L118.066 0.655275Z" fill="white"/>
</mask>
<g mask="url(#mask2_1_620)">
<path d="M118.066 0.655275C118.107 0.290579 118.474 0.00686836 118.801 0.00686836H119.455C119.659 0.00686836 120.026 0.169014 120.149 0.412144L129.627 17.9161H129.709L139.186 0.412144C139.309 0.169014 139.677 0.00686836 139.881 0.00686836H140.535C140.861 0.00686836 141.229 0.290579 141.27 0.655275L145.886 27.8835C145.968 28.4106 145.6 28.7752 145.11 28.7752H140.289C139.922 28.7752 139.554 28.4513 139.513 28.1267L137.675 15.6067H137.593L130.73 28.7345C130.607 28.9774 130.239 29.1805 130.035 29.1805H129.3C129.055 29.1805 128.728 28.9774 128.605 28.7345L121.702 15.6067H121.62L119.822 28.1267C119.781 28.4513 119.455 28.7752 119.046 28.7752H114.226C113.735 28.7752 113.368 28.4106 113.449 27.8835L118.066 0.655275Z" fill="url(#paint2_linear_1_620)"/>
</g>
<mask id="mask3_1_620" style="mask-type:luminance" maskUnits="userSpaceOnUse" x="150" y="0" width="22" height="29">
<path d="M162.55 12.5273C164.225 12.5273 165.655 10.9874 165.655 9.28565C165.655 7.5841 164.225 6.2063 162.55 6.2063H156.504V12.5273H162.55ZM150.09 1.18138C150.09 0.776814 150.417 0.412115 150.867 0.412115H163.081C167.984 0.412115 171.987 4.34242 171.987 9.16409C171.987 12.892 169.495 15.8899 165.941 17.3084L171.538 27.6005C171.824 28.1267 171.538 28.7752 170.843 28.7752H165.41C165.083 28.7752 164.838 28.5729 164.756 28.4105L159.323 17.6731H156.504V28.0051C156.504 28.4105 156.136 28.7752 155.728 28.7752H150.867C150.417 28.7752 150.09 28.4105 150.09 28.0051V1.18138Z" fill="white"/>
</mask>
<g mask="url(#mask3_1_620)">
<path d="M162.55 12.5273C164.225 12.5273 165.655 10.9874 165.655 9.28565C165.655 7.5841 164.225 6.2063 162.55 6.2063H156.504V12.5273H162.55ZM150.09 1.18138C150.09 0.776814 150.417 0.412115 150.867 0.412115H163.081C167.984 0.412115 171.987 4.34242 171.987 9.16409C171.987 12.892 169.495 15.8899 165.941 17.3084L171.538 27.6005C171.824 28.1267 171.538 28.7752 170.843 28.7752H165.41C165.083 28.7752 164.838 28.5729 164.756 28.4105L159.323 17.6731H156.504V28.0051C156.504 28.4105 156.136 28.7752 155.728 28.7752H150.867C150.417 28.7752 150.09 28.4105 150.09 28.0051V1.18138Z" fill="url(#paint3_linear_1_620)"/>
</g>
</g>
<defs>
<linearGradient id="paint0_linear_1_620" x1="63.9222" y1="-11.5475" x2="63.9222" y2="20.9494" gradientUnits="userSpaceOnUse">
<stop stop-color="#1F3860"/>
<stop offset="0.997207" stop-color="#284EA2"/>
<stop offset="1" stop-color="#284EA2"/>
</linearGradient>
<linearGradient id="paint1_linear_1_620" x1="94.824" y1="-11.5475" x2="94.824" y2="20.9494" gradientUnits="userSpaceOnUse">
<stop stop-color="#1F3860"/>
<stop offset="0.997207" stop-color="#284EA2"/>
<stop offset="1" stop-color="#284EA2"/>
</linearGradient>
<linearGradient id="paint2_linear_1_620" x1="129.668" y1="-11.5475" x2="129.668" y2="20.9494" gradientUnits="userSpaceOnUse">
<stop stop-color="#1F3860"/>
<stop offset="0.997207" stop-color="#284EA2"/>
<stop offset="1" stop-color="#284EA2"/>
</linearGradient>
<linearGradient id="paint3_linear_1_620" x1="161.039" y1="-11.5475" x2="161.039" y2="20.9494" gradientUnits="userSpaceOnUse">
<stop stop-color="#1F3860"/>
<stop offset="0.997207" stop-color="#284EA2"/>
<stop offset="1" stop-color="#284EA2"/>
</linearGradient>
<clipPath id="clip0_1_620">
<rect width="173" height="40" fill="white"/>
</clipPath>
</defs>
</svg>
